<?xml version="1.0" encoding="UTF-8"?>
<svg xmlns="http://www.w3.org/2000/svg" xmlns:xlink="http://www.w3.org/1999/xlink" width="1500px" height="620px" viewBox="0 0 1499 620" version="1.1">
<g id="surface1">
<path style=" stroke:none;fill-rule:nonzero;fill:rgb(0%,0%,0%);fill-opacity:1;" d="M 743.847656 24.507812 C 722.703125 50.6875 695.066406 87.761719 695.066406 90.277344 C 695.066406 94.046875 697.371094 91.742188 709.722656 74.988281 C 725.003906 54.039062 726.261719 55.085938 711.816406 76.453125 C 706.164062 85.039062 701.347656 92.789062 701.347656 93.835938 C 701.347656 95.933594 713.492188 101.796875 714.746094 100.332031 C 715.164062 99.914062 721.445312 88.8125 728.5625 75.613281 C 745.730469 44.195312 763.109375 6.703125 761.433594 4.816406 C 760.804688 4.398438 753.058594 13.195312 743.847656 24.507812 Z M 743.847656 24.507812 "/>
<path style=" stroke:none;fill-rule:nonzero;fill:rgb(0%,0%,0%);fill-opacity:1;" d="M 681.878906 110.386719 C 677.273438 119.601562 674.757812 127.140625 675.804688 128.1875 C 676.851562 129.238281 689.832031 134.472656 704.699219 140.128906 C 748.871094 156.675781 829.683594 195.84375 841.617188 206.527344 C 848.527344 212.601562 963.253906 274.390625 967.652344 274.390625 C 969.742188 274.390625 972.257812 272.507812 973.511719 269.992188 C 979.164062 259.730469 977.28125 258.472656 913.007812 223.703125 C 879.09375 205.480469 850.199219 190.816406 848.527344 191.445312 C 847.0625 192.074219 811.46875 170.5 769.390625 143.480469 C 727.515625 116.460938 692.34375 94.257812 691.507812 94.464844 C 690.671875 94.464844 686.273438 101.796875 681.878906 110.386719 Z M 681.878906 110.386719 "/>
<path style=" stroke:none;fill-rule:nonzero;fill:rgb(0%,0%,0%);fill-opacity:1;" d="M 662.824219 160.238281 C 650.894531 192.703125 639.167969 232.5 641.472656 232.5 C 643.773438 232.5 692.972656 145.785156 692.972656 141.59375 C 692.972656 140.335938 690.042969 138.035156 686.484375 136.777344 L 679.992188 134.261719 L 673.292969 149.34375 C 669.527344 157.722656 665.339844 167.566406 663.664062 171.335938 C 662.199219 175.109375 660.730469 177.832031 660.105469 177.414062 C 659.6875 176.785156 662.617188 167.148438 666.59375 155.835938 C 670.78125 144.527344 673.710938 135.101562 673.292969 134.683594 C 672.875 134.261719 668.269531 145.785156 662.824219 160.238281 Z M 662.824219 160.238281 "/>
<path style=" stroke:none;fill-rule:nonzero;fill:rgb(0%,0%,0%);fill-opacity:1;" d="M 112.632812 180.136719 C 94.839844 183.066406 73.273438 191.027344 59.875 200.035156 C 20.308594 226.214844 -1.257812 282.769531 0.210938 357.128906 C 2.09375 455.992188 31.824219 503.960938 100.492188 518.621094 C 130.011719 524.90625 182.976562 521.34375 219.40625 510.664062 L 234.480469 506.261719 L 234.480469 339.324219 L 123.941406 339.324219 L 124.359375 357.546875 L 124.566406 375.980469 L 159.738281 376.609375 L 194.703125 377.027344 L 194.703125 477.148438 L 183.816406 480.082031 C 167.277344 484.269531 119.332031 483.640625 104.679688 479.242188 C 63.015625 466.257812 46.269531 432.113281 45.847656 358.386719 C 45.640625 312.933594 51.292969 285.285156 65.949219 260.777344 C 75.367188 245.066406 80.394531 239.832031 91.488281 233.128906 C 120.171875 216.371094 165.183594 219.304688 222.335938 241.925781 C 226.523438 243.601562 227.570312 238.785156 228.828125 213.230469 L 229.664062 197.101562 L 216.894531 191.863281 C 209.777344 188.933594 198.050781 184.953125 190.515625 183.277344 C 173.976562 179.296875 128.964844 177.621094 112.632812 180.136719 Z M 112.632812 180.136719 "/>
<path style=" stroke:none;fill-rule:nonzero;fill:rgb(0%,0%,0%);fill-opacity:1;" d="M 579.5 238.15625 C 579.082031 271.460938 578.664062 348.75 578.246094 409.914062 L 577.828125 521.554688 L 617.605469 521.554688 L 617.605469 387.082031 C 617.605469 313.140625 618.023438 253.238281 618.859375 253.863281 C 619.488281 254.492188 640.007812 303.507812 664.292969 362.574219 L 708.882812 470.238281 L 729.820312 470.863281 L 750.964844 471.492188 L 755.363281 461.4375 C 757.664062 455.992188 777.554688 407.1875 799.746094 352.9375 C 821.9375 298.6875 840.78125 253.65625 841.828125 252.609375 C 842.875 251.351562 843.710938 305.8125 843.710938 386.035156 L 843.710938 521.554688 L 883.488281 521.554688 L 883.070312 379.539062 L 882.441406 237.738281 L 862.554688 226.84375 C 851.667969 220.769531 841.828125 214.488281 840.570312 213.019531 C 837.429688 208.621094 824.660156 202.546875 822.773438 204.640625 C 821.9375 205.480469 802.675781 252.398438 779.855469 308.953125 C 757.035156 365.296875 736.519531 415.777344 734.425781 421.011719 L 730.238281 430.4375 L 700.929688 357.546875 L 671.410156 284.863281 L 663.035156 283.398438 L 654.660156 282.140625 L 656.125 266.011719 C 657.171875 252.1875 656.753906 248.210938 653.195312 239.621094 L 648.800781 229.566406 L 642.726562 240.25 C 635.609375 252.609375 631.003906 256.796875 632.886719 249.046875 C 638.332031 226.007812 639.378906 192.285156 634.980469 180.761719 C 634.144531 178.667969 627.445312 178.039062 606.925781 178.039062 L 580.128906 178.039062 Z M 579.5 238.15625 "/>
<path style=" stroke:none;fill-rule:nonzero;fill:rgb(0%,0%,0%);fill-opacity:1;" d="M 841.40625 182.648438 C 843.921875 184.535156 847.480469 185.582031 849.152344 184.953125 C 850.828125 184.324219 858.574219 187.675781 866.320312 192.492188 C 874.277344 197.3125 881.1875 201.082031 882.023438 201.082031 C 882.859375 201.082031 883.488281 197.519531 883.28125 193.121094 C 882.652344 177.621094 883.488281 178.25 858.992188 178.667969 C 837.640625 178.878906 837.222656 179.085938 841.40625 182.648438 Z M 841.40625 182.648438 "/>
<path style=" stroke:none;fill-rule:nonzero;fill:rgb(0%,0%,0%);fill-opacity:1;" d="M 314.035156 349.796875 L 314.035156 515.269531 L 512.925781 515.269531 L 512.925781 469.1875 L 358.210938 469.1875 L 356.953125 366.554688 L 494.082031 366.554688 L 494.082031 320.472656 L 356.953125 320.472656 L 357.582031 275.4375 L 358.210938 230.40625 L 510.832031 230.40625 L 510.832031 184.324219 L 412.433594 184.324219 L 314.035156 184.535156 Z M 314.035156 349.796875 "/>
<path style=" stroke:none;fill-rule:nonzero;fill:rgb(0%,0%,0%);fill-opacity:1;" d="M 1262.425781 349.796875 L 1262.425781 515.269531 L 1320 515.269531 C 1394.738281 515.269531 1414 511.710938 1442.054688 492.4375 C 1456.710938 482.386719 1462.570312 476.101562 1473.457031 459.136719 C 1498.582031 419.964844 1506.117188 346.238281 1491.464844 284.863281 C 1479.738281 236.269531 1446.453125 201.289062 1399.972656 189.140625 C 1389.925781 186.628906 1373.386719 185.582031 1324.816406 184.953125 L 1262.425781 184.113281 Z M 1384.898438 226.636719 C 1399.554688 229.777344 1418.605469 240.25 1426.5625 249.675781 C 1436.191406 260.777344 1443.519531 276.695312 1447.917969 296.386719 C 1453.570312 320.054688 1453.359375 384.148438 1447.917969 405.304688 C 1437.238281 446.148438 1417.351562 467.09375 1382.386719 474.425781 C 1373.804688 476.3125 1356.007812 477.566406 1337.375 477.566406 L 1306.390625 477.566406 L 1306.390625 352.9375 C 1306.390625 284.445312 1306.390625 227.683594 1306.390625 226.636719 C 1306.390625 224.960938 1352.449219 222.65625 1366.058594 223.703125 C 1370.664062 224.121094 1379.246094 225.378906 1384.898438 226.636719 Z M 1384.898438 226.636719 "/>
<path style=" stroke:none;fill-rule:nonzero;fill:rgb(0%,0%,0%);fill-opacity:1;" d="M 994.65625 349.378906 C 966.605469 437.769531 943.15625 512.128906 942.527344 514.851562 C 941.691406 519.460938 941.898438 519.460938 963.464844 519.460938 L 985.027344 519.460938 L 997.589844 477.566406 L 1010.148438 435.675781 L 1135.972656 435.675781 L 1148.324219 477.566406 L 1160.679688 519.460938 L 1205.691406 519.460938 L 1203.804688 513.59375 C 1202.757812 510.453125 1180.984375 440.492188 1155.652344 358.175781 C 1130.113281 275.859375 1107.921875 204.011719 1106.246094 198.359375 L 1102.894531 188.511719 L 1045.742188 188.511719 Z M 1099.964844 315.027344 C 1113.363281 359.640625 1124.039062 396.714844 1123.621094 397.136719 C 1123.203125 397.761719 1100.175781 397.761719 1072.539062 397.554688 L 1022.082031 396.925781 L 1047.414062 313.5625 C 1061.234375 267.6875 1073.375 231.035156 1074.003906 231.871094 C 1074.839844 232.917969 1086.566406 270.203125 1099.964844 315.027344 Z M 1099.964844 315.027344 "/>
<path style=" stroke:none;fill-rule:nonzero;fill:rgb(0%,0%,0%);fill-opacity:1;" d="M 687.738281 224.960938 C 681.878906 229.988281 677.691406 234.59375 678.320312 235.011719 C 678.945312 235.640625 684.597656 239.621094 690.878906 243.8125 L 702.394531 251.5625 L 713.492188 239.414062 L 724.796875 227.261719 L 712.445312 221.609375 C 705.746094 218.464844 699.882812 215.953125 699.253906 215.742188 C 698.625 215.742188 693.390625 219.933594 687.738281 224.960938 Z M 687.738281 224.960938 "/>
<path style=" stroke:none;fill-rule:nonzero;fill:rgb(0%,0%,0%);fill-opacity:1;" d="M 662.617188 253.027344 C 661.988281 253.65625 661.570312 259.101562 661.570312 264.964844 L 661.570312 275.859375 L 672.246094 277.324219 C 678.109375 278.164062 683.34375 278.371094 683.761719 277.953125 C 684.179688 277.535156 683.972656 272.925781 683.34375 267.898438 C 682.085938 259.101562 681.457031 258.261719 672.875 255.121094 C 667.851562 253.445312 663.246094 252.398438 662.617188 253.027344 Z M 662.617188 253.027344 "/>
<path style=" stroke:none;fill-rule:nonzero;fill:rgb(0%,0%,0%);fill-opacity:1;" d="M 713.492188 263.5 L 703.441406 267.0625 L 710.976562 276.488281 C 715.164062 281.722656 719.144531 286.121094 719.769531 286.332031 C 720.609375 286.539062 724.796875 283.816406 729.191406 280.046875 L 736.9375 273.34375 L 732.332031 266.640625 C 726.890625 258.890625 726.679688 258.890625 713.492188 263.5 Z M 713.492188 263.5 "/>
<path style=" stroke:none;fill-rule:nonzero;fill:rgb(0%,0%,0%);fill-opacity:1;" d="M 695.066406 279.210938 C 692.136719 280.464844 689.625 281.722656 689.203125 281.933594 C 688.785156 282.140625 689.832031 284.238281 691.296875 286.75 C 692.972656 289.472656 696.113281 291.148438 699.882812 291.148438 C 705.535156 291.148438 705.953125 290.730469 704.488281 285.285156 C 702.605469 277.535156 701.136719 276.488281 695.066406 279.210938 Z M 695.066406 279.210938 "/>
<path style=" stroke:none;fill-rule:nonzero;fill:rgb(0%,0%,0%);fill-opacity:1;" d="M 696.324219 307.066406 C 695.484375 308.953125 695.484375 311.046875 696.113281 311.886719 C 697.789062 313.351562 704.070312 309.371094 705.117188 306.230469 C 706.371094 302.25 697.789062 303.296875 696.324219 307.066406 Z M 696.324219 307.066406 "/>
<path style=" stroke:none;fill-rule:nonzero;fill:rgb(0%,0%,0%);fill-opacity:1;" d="M 718.097656 318.378906 C 718.097656 321.101562 719.144531 322.566406 720.816406 321.9375 C 722.074219 321.519531 723.332031 319.84375 723.332031 318.378906 C 723.332031 316.914062 722.074219 315.238281 720.816406 314.609375 C 719.144531 314.1875 718.097656 315.65625 718.097656 318.378906 Z M 718.097656 318.378906 "/>
<path style=" stroke:none;fill-rule:nonzero;fill:rgb(0%,0%,0%);fill-opacity:1;" d="M 23.65625 564.285156 C 18.421875 568.890625 17.796875 570.777344 17.796875 582.296875 C 17.796875 598.84375 22.609375 603.871094 37.476562 602.824219 L 47.105469 602.195312 L 47.734375 591.09375 L 48.363281 580.203125 L 41.035156 580.203125 C 36.847656 580.203125 33.496094 581.039062 33.496094 582.296875 C 33.496094 583.34375 35.382812 584.390625 37.894531 584.390625 C 41.453125 584.390625 42.082031 585.4375 41.453125 591.09375 C 39.988281 605.964844 23.03125 598.007812 23.03125 582.714844 C 23.03125 570.988281 27.84375 565.539062 37.894531 565.539062 C 46.269531 565.539062 48.78125 562.816406 42.707031 560.511719 C 36.21875 558 29.519531 559.257812 23.65625 564.285156 Z M 23.65625 564.285156 "/>
<path style=" stroke:none;fill-rule:nonzero;fill:rgb(0%,0%,0%);fill-opacity:1;" d="M 97.351562 564.492188 C 92.953125 568.683594 92.117188 571.613281 92.117188 581.878906 C 92.117188 591.933594 92.953125 594.863281 96.933594 598.636719 C 106.355469 607.640625 119.960938 603.664062 123.730469 590.886719 C 127.078125 579.992188 124.566406 568.890625 117.867188 563.445312 C 110.75 557.789062 103.421875 558.210938 97.351562 564.492188 Z M 117.238281 572.664062 C 122.472656 588.789062 114.101562 603.035156 103.421875 595.914062 C 99.234375 593.1875 98.398438 591.09375 98.398438 581.667969 C 98.398438 569.101562 100.910156 565.539062 109.074219 565.539062 C 113.679688 565.539062 115.355469 566.796875 117.238281 572.664062 Z M 117.238281 572.664062 "/>
<path style=" stroke:none;fill-rule:nonzero;fill:rgb(0%,0%,0%);fill-opacity:1;" d="M 174.605469 561.351562 C 164.34375 565.539062 162.253906 591.933594 171.671875 599.472656 C 178.371094 604.917969 187.585938 604.289062 193.65625 598.007812 C 198.050781 593.816406 198.890625 590.886719 198.890625 581.25 C 198.890625 571.613281 198.050781 568.683594 193.65625 564.492188 C 188.421875 559.046875 182.351562 558.210938 174.605469 561.351562 Z M 190.515625 569.519531 C 191.5625 571.824219 192.609375 577.898438 192.609375 583.136719 C 192.609375 590.886719 191.5625 593.398438 187.585938 595.914062 C 184.863281 597.585938 181.09375 598.425781 179.210938 597.796875 C 172.511719 595.285156 169.789062 581.460938 173.765625 570.988281 C 176.277344 564.074219 187.164062 563.238281 190.515625 569.519531 Z M 190.515625 569.519531 "/>
<path style=" stroke:none;fill-rule:nonzero;fill:rgb(0%,0%,0%);fill-opacity:1;" d="M 218.359375 561.351562 C 211.871094 564.074219 209.359375 569.9375 209.359375 583.136719 C 209.359375 592.980469 210.195312 595.074219 215.011719 599.054688 C 219.199219 602.195312 222.964844 603.242188 229.039062 602.824219 L 237.621094 602.195312 L 238.25 591.09375 L 238.878906 580.203125 L 232.597656 580.203125 C 229.039062 580.203125 226.105469 581.039062 226.105469 582.296875 C 226.105469 583.34375 227.992188 584.390625 230.503906 584.390625 C 234.0625 584.390625 234.691406 585.4375 234.0625 591.09375 C 233.222656 599.261719 228.410156 600.9375 220.871094 596.121094 C 216.476562 593.1875 215.636719 590.886719 215.636719 583.136719 C 215.636719 569.3125 218.359375 565.539062 228.199219 565.539062 C 236.785156 565.539062 240.96875 562.609375 235.316406 560.511719 C 230.921875 558.835938 223.804688 559.046875 218.359375 561.351562 Z M 218.359375 561.351562 "/>
<path style=" stroke:none;fill-rule:nonzero;fill:rgb(0%,0%,0%);fill-opacity:1;" d="M 274.886719 561.769531 C 264.835938 566.585938 263.164062 592.140625 272.375 599.683594 C 275.304688 602.195312 279.703125 603.242188 284.308594 602.824219 C 294.148438 601.988281 295.402344 597.796875 285.773438 597.796875 C 276.5625 597.796875 274.257812 595.492188 272.792969 584.601562 C 271.117188 572.664062 275.933594 565.539062 285.773438 565.539062 C 293.308594 565.539062 295.613281 562.816406 289.75 560.511719 C 285.144531 558.835938 280.328125 559.257812 274.886719 561.769531 Z M 274.886719 561.769531 "/>
<path style=" stroke:none;fill-rule:nonzero;fill:rgb(0%,0%,0%);fill-opacity:1;" d="M 540.980469 561.351562 C 530.722656 565.539062 528.628906 591.933594 538.050781 599.472656 C 544.75 604.917969 553.960938 604.289062 560.03125 598.007812 C 564.429688 593.816406 565.265625 590.886719 565.265625 581.25 C 565.265625 571.613281 564.429688 568.683594 560.03125 564.492188 C 554.796875 559.046875 548.726562 558.210938 540.980469 561.351562 Z M 556.890625 569.519531 C 557.9375 571.824219 558.984375 577.898438 558.984375 583.136719 C 558.984375 590.886719 557.9375 593.398438 553.960938 595.914062 C 551.238281 597.585938 547.46875 598.425781 545.585938 597.796875 C 538.886719 595.285156 536.164062 581.460938 540.140625 570.988281 C 542.65625 564.074219 553.542969 563.238281 556.890625 569.519531 Z M 556.890625 569.519531 "/>
<path style=" stroke:none;fill-rule:nonzero;fill:rgb(0%,0%,0%);fill-opacity:1;" d="M 708.675781 564.492188 C 704.488281 568.683594 703.441406 571.613281 703.441406 580.832031 C 703.441406 595.074219 708.882812 603.242188 718.304688 603.242188 C 727.726562 603.242188 732.332031 599.890625 735.054688 590.886719 C 738.402344 579.992188 735.890625 568.890625 729.191406 563.445312 C 722.074219 557.789062 714.746094 558.210938 708.675781 564.492188 Z M 728.144531 572.453125 C 731.914062 580.203125 729.609375 594.238281 723.957031 597.167969 C 720.816406 598.84375 718.722656 598.636719 714.746094 595.914062 C 710.558594 593.1875 709.722656 591.09375 709.722656 581.667969 C 709.722656 575.59375 710.976562 569.3125 712.234375 568.054688 C 716.632812 563.65625 725.003906 565.960938 728.144531 572.453125 Z M 728.144531 572.453125 "/>
<path style=" stroke:none;fill-rule:nonzero;fill:rgb(0%,0%,0%);fill-opacity:1;" d="M 1024.386719 561.351562 C 1017.894531 564.074219 1015.382812 569.9375 1015.382812 583.136719 C 1015.382812 592.980469 1016.222656 595.074219 1021.035156 599.054688 C 1025.222656 602.195312 1028.992188 603.242188 1035.0625 602.824219 L 1043.648438 602.195312 L 1044.277344 591.09375 L 1044.902344 580.203125 L 1038.621094 580.203125 C 1035.0625 580.203125 1032.132812 581.039062 1032.132812 582.296875 C 1032.132812 583.34375 1034.015625 584.390625 1036.527344 584.390625 C 1040.089844 584.390625 1040.714844 585.4375 1040.089844 591.09375 C 1039.25 599.261719 1034.4375 600.9375 1026.898438 596.121094 C 1022.503906 593.1875 1021.664062 590.886719 1021.664062 583.136719 C 1021.664062 569.3125 1024.386719 565.539062 1034.226562 565.539062 C 1042.808594 565.539062 1046.996094 562.609375 1041.34375 560.511719 C 1036.949219 558.835938 1029.828125 559.046875 1024.386719 561.351562 Z M 1024.386719 561.351562 "/>
<path style=" stroke:none;fill-rule:nonzero;fill:rgb(0%,0%,0%);fill-opacity:1;" d="M 1445.195312 561.351562 C 1438.703125 564.074219 1436.191406 569.9375 1436.191406 583.136719 C 1436.191406 592.980469 1437.03125 595.074219 1441.84375 599.054688 C 1446.03125 602.195312 1449.800781 603.242188 1455.871094 602.824219 L 1464.457031 602.195312 L 1465.085938 591.09375 L 1465.710938 580.203125 L 1459.429688 580.203125 C 1455.871094 580.203125 1452.941406 581.039062 1452.941406 582.296875 C 1452.941406 583.34375 1454.824219 584.390625 1457.335938 584.390625 C 1460.898438 584.390625 1461.523438 585.4375 1460.898438 591.09375 C 1460.058594 599.261719 1455.246094 600.9375 1447.707031 596.121094 C 1443.3125 593.1875 1442.472656 590.886719 1442.472656 583.136719 C 1442.472656 569.3125 1445.195312 565.539062 1455.035156 565.539062 C 1463.617188 565.539062 1467.804688 562.609375 1462.152344 560.511719 C 1457.757812 558.835938 1450.636719 559.046875 1445.195312 561.351562 Z M 1445.195312 561.351562 "/>
<path style=" stroke:none;fill-rule:nonzero;fill:rgb(0%,0%,0%);fill-opacity:1;" d="M 58.621094 582.296875 L 58.621094 603.242188 L 71.179688 603.242188 C 81.019531 603.242188 83.742188 602.613281 83.742188 600.101562 C 83.742188 597.796875 81.230469 596.960938 74.320312 596.960938 C 65.320312 596.960938 64.902344 596.75 64.902344 590.675781 C 64.902344 584.8125 65.320312 584.390625 73.273438 584.390625 C 79.347656 584.390625 81.648438 583.554688 81.648438 581.25 C 81.648438 578.945312 79.347656 578.109375 73.273438 578.109375 C 65.320312 578.109375 64.902344 577.6875 64.902344 571.824219 C 64.902344 565.75 65.320312 565.539062 74.320312 565.539062 C 79.554688 565.539062 83.742188 564.492188 83.742188 563.445312 C 83.742188 562.1875 78.089844 561.351562 71.179688 561.351562 L 58.621094 561.351562 Z M 58.621094 582.296875 "/>
<path style=" stroke:none;fill-rule:nonzero;fill:rgb(0%,0%,0%);fill-opacity:1;" d="M 136.082031 582.296875 L 136.082031 603.242188 L 147.597656 603.242188 C 156.390625 603.242188 159.113281 602.613281 159.113281 600.101562 C 159.113281 597.796875 156.808594 596.960938 150.738281 596.960938 L 142.363281 596.960938 L 142.363281 579.15625 C 142.363281 564.703125 141.734375 561.351562 139.222656 561.351562 C 136.710938 561.351562 136.082031 565.121094 136.082031 582.296875 Z M 136.082031 582.296875 "/>
<path style=" stroke:none;fill-rule:nonzero;fill:rgb(0%,0%,0%);fill-opacity:1;" d="M 249.136719 582.296875 C 249.136719 599.472656 249.761719 603.242188 252.277344 603.242188 C 254.789062 603.242188 255.417969 599.472656 255.417969 582.296875 C 255.417969 565.121094 254.789062 561.351562 252.277344 561.351562 C 249.761719 561.351562 249.136719 565.121094 249.136719 582.296875 Z M 249.136719 582.296875 "/>
<path style=" stroke:none;fill-rule:nonzero;fill:rgb(0%,0%,0%);fill-opacity:1;" d="M 307.964844 580.832031 C 300.429688 603.035156 300.429688 603.242188 304.40625 603.242188 C 306.082031 603.242188 307.964844 600.730469 308.59375 597.796875 C 309.847656 592.980469 310.894531 592.5625 318.851562 593.1875 C 326.179688 593.609375 327.855469 594.65625 328.273438 598.425781 C 328.902344 603.035156 334.972656 605.335938 334.972656 600.9375 C 334.972656 599.890625 332.460938 590.464844 329.320312 579.992188 C 324.503906 563.65625 323.246094 561.351562 319.0625 561.351562 C 315.082031 561.351562 313.410156 564.074219 307.964844 580.832031 Z M 321.992188 575.804688 C 325.550781 587.535156 325.132812 588.582031 318.015625 588.582031 C 312.152344 588.582031 311.523438 587.953125 312.78125 583.761719 C 313.617188 581.25 314.664062 576.640625 315.292969 573.289062 C 317.175781 565.539062 319.269531 566.167969 321.992188 575.804688 Z M 321.992188 575.804688 "/>
<path style=" stroke:none;fill-rule:nonzero;fill:rgb(0%,0%,0%);fill-opacity:1;" d="M 343.347656 582.296875 L 343.347656 603.242188 L 355.90625 603.242188 C 365.746094 603.242188 368.46875 602.613281 368.46875 600.101562 C 368.46875 597.796875 365.957031 596.960938 359.046875 596.960938 L 349.628906 596.960938 L 349.628906 579.15625 C 349.628906 564.703125 349 561.351562 346.488281 561.351562 C 343.972656 561.351562 343.347656 565.121094 343.347656 582.296875 Z M 343.347656 582.296875 "/>
<path style=" stroke:none;fill-rule:nonzero;fill:rgb(0%,0%,0%);fill-opacity:1;" d="M 391.5 582.296875 L 391.5 603.242188 L 404.058594 603.242188 C 413.898438 603.242188 416.621094 602.613281 416.621094 600.101562 C 416.621094 597.796875 414.109375 596.960938 407.199219 596.960938 C 398.199219 596.960938 397.78125 596.75 397.78125 590.675781 C 397.78125 584.8125 398.199219 584.390625 406.152344 584.390625 C 412.226562 584.390625 414.527344 583.554688 414.527344 581.25 C 414.527344 578.945312 412.226562 578.109375 406.152344 578.109375 C 398.199219 578.109375 397.78125 577.6875 397.78125 571.824219 C 397.78125 565.75 398.199219 565.539062 407.199219 565.539062 C 412.433594 565.539062 416.621094 564.492188 416.621094 563.445312 C 416.621094 562.1875 410.96875 561.351562 404.058594 561.351562 L 391.5 561.351562 Z M 391.5 582.296875 "/>
<path style=" stroke:none;fill-rule:nonzero;fill:rgb(0%,0%,0%);fill-opacity:1;" d="M 430.019531 570.988281 L 435.464844 580.832031 L 429.390625 591.933594 C 424.160156 601.566406 423.738281 603.242188 426.878906 603.242188 C 428.972656 603.242188 432.113281 599.683594 434.625 594.445312 L 439.023438 585.648438 L 443.839844 594.445312 C 446.558594 599.261719 450.117188 603.242188 451.585938 603.242188 C 455.351562 603.242188 455.144531 602.195312 448.652344 591.304688 L 443 581.667969 L 448.652344 571.40625 C 453.257812 563.445312 453.679688 561.351562 451.164062 561.351562 C 449.28125 561.351562 446.140625 564.074219 444.257812 567.636719 C 439.859375 575.386719 438.394531 575.386719 434.417969 567.636719 C 432.53125 564.074219 429.601562 561.351562 427.925781 561.351562 C 425.207031 561.351562 425.625 563.238281 430.019531 570.988281 Z M 430.019531 570.988281 "/>
<path style=" stroke:none;fill-rule:nonzero;fill:rgb(0%,0%,0%);fill-opacity:1;" d="M 464.773438 582.296875 C 464.773438 599.472656 465.402344 603.242188 467.914062 603.242188 C 470.21875 603.242188 471.054688 600.9375 471.054688 594.863281 C 471.054688 586.488281 471.054688 586.488281 479.011719 586.488281 C 488.851562 586.488281 491.988281 583.554688 491.988281 573.917969 C 491.988281 563.65625 488.851562 561.351562 475.871094 561.351562 L 464.773438 561.351562 Z M 484.664062 573.917969 C 484.664062 580.621094 484.035156 581.25 477.964844 581.878906 C 471.265625 582.507812 471.054688 582.507812 471.054688 573.917969 C 471.054688 565.332031 471.265625 565.332031 477.964844 565.960938 C 484.035156 566.585938 484.664062 567.214844 484.664062 573.917969 Z M 484.664062 573.917969 "/>
<path style=" stroke:none;fill-rule:nonzero;fill:rgb(0%,0%,0%);fill-opacity:1;" d="M 502.457031 582.296875 L 502.457031 603.242188 L 513.972656 603.242188 C 522.765625 603.242188 525.488281 602.613281 525.488281 600.101562 C 525.488281 597.796875 523.183594 596.960938 517.113281 596.960938 L 508.738281 596.960938 L 508.738281 579.15625 C 508.738281 564.703125 508.109375 561.351562 505.597656 561.351562 C 503.085938 561.351562 502.457031 565.121094 502.457031 582.296875 Z M 502.457031 582.296875 "/>
<path style=" stroke:none;fill-rule:nonzero;fill:rgb(0%,0%,0%);fill-opacity:1;" d="M 575.734375 582.296875 C 575.734375 599.472656 576.359375 603.242188 578.875 603.242188 C 581.175781 603.242188 582.015625 600.9375 582.015625 594.863281 C 582.015625 583.34375 587.875 583.34375 594.367188 594.863281 C 596.878906 599.472656 600.4375 603.242188 602.113281 603.242188 C 605.878906 603.242188 605.878906 602.824219 600.648438 593.816406 C 596.460938 586.90625 596.460938 586.066406 599.601562 582.507812 C 603.367188 578.316406 603.996094 571.40625 600.855469 565.332031 C 598.972656 562.1875 596.25 561.351562 587.246094 561.351562 L 575.734375 561.351562 Z M 595.621094 572.871094 C 595.621094 578.527344 594.785156 579.15625 588.921875 579.785156 C 582.222656 580.414062 582.015625 580.203125 582.015625 572.871094 C 582.015625 565.539062 582.222656 565.332031 588.921875 565.960938 C 594.785156 566.585938 595.621094 567.214844 595.621094 572.871094 Z M 595.621094 572.871094 "/>
<path style=" stroke:none;fill-rule:nonzero;fill:rgb(0%,0%,0%);fill-opacity:1;" d="M 617.8125 580.832031 C 610.277344 603.035156 610.277344 603.242188 614.253906 603.242188 C 615.929688 603.242188 617.8125 600.730469 618.441406 597.796875 C 619.699219 592.980469 620.746094 592.5625 628.699219 593.1875 C 636.027344 593.609375 637.703125 594.65625 638.121094 598.425781 C 638.75 603.035156 644.820312 605.335938 644.820312 600.9375 C 644.820312 599.890625 642.308594 590.464844 639.167969 579.992188 C 634.351562 563.65625 633.097656 561.351562 628.910156 561.351562 C 624.933594 561.351562 623.257812 564.074219 617.8125 580.832031 Z M 631.839844 575.804688 C 635.398438 587.535156 634.980469 588.582031 627.863281 588.582031 C 622 588.582031 621.375 587.953125 622.628906 583.761719 C 623.464844 581.25 624.511719 576.640625 625.140625 573.289062 C 627.027344 565.539062 629.121094 566.167969 631.839844 575.804688 Z M 631.839844 575.804688 "/>
<path style=" stroke:none;fill-rule:nonzero;fill:rgb(0%,0%,0%);fill-opacity:1;" d="M 649.007812 563.445312 C 649.007812 564.492188 651.3125 565.539062 654.242188 565.539062 C 659.476562 565.539062 659.476562 565.75 659.476562 584.390625 C 659.476562 599.683594 660.105469 603.242188 662.617188 603.242188 C 665.128906 603.242188 665.757812 599.683594 665.757812 584.390625 L 665.757812 565.539062 L 672.039062 565.539062 C 675.597656 565.539062 678.320312 564.492188 678.320312 563.445312 C 678.320312 562.1875 672.039062 561.351562 663.664062 561.351562 C 655.289062 561.351562 649.007812 562.1875 649.007812 563.445312 Z M 649.007812 563.445312 "/>
<path style=" stroke:none;fill-rule:nonzero;fill:rgb(0%,0%,0%);fill-opacity:1;" d="M 686.691406 582.296875 C 686.691406 599.472656 687.320312 603.242188 689.832031 603.242188 C 692.34375 603.242188 692.972656 599.472656 692.972656 582.296875 C 692.972656 565.121094 692.34375 561.351562 689.832031 561.351562 C 687.320312 561.351562 686.691406 565.121094 686.691406 582.296875 Z M 686.691406 582.296875 "/>
<path style=" stroke:none;fill-rule:nonzero;fill:rgb(0%,0%,0%);fill-opacity:1;" d="M 747.40625 582.296875 C 747.40625 594.863281 748.242188 603.242188 749.5 603.242188 C 750.757812 603.242188 751.59375 596.332031 751.59375 586.488281 C 751.59375 577.269531 752.429688 569.730469 753.269531 569.730469 C 754.105469 569.730469 758.710938 577.269531 763.109375 586.488281 C 768.761719 598.214844 772.320312 603.242188 775.042969 603.242188 C 778.390625 603.242188 778.808594 601.148438 778.808594 582.296875 C 778.808594 565.332031 778.183594 561.351562 775.667969 561.351562 C 773.367188 561.351562 772.53125 564.914062 772.109375 577.269531 L 771.484375 593.398438 L 763.109375 577.480469 C 757.457031 566.796875 753.476562 561.351562 751.175781 561.351562 C 747.824219 561.351562 747.40625 563.65625 747.40625 582.296875 Z M 747.40625 582.296875 "/>
<path style=" stroke:none;fill-rule:nonzero;fill:rgb(0%,0%,0%);fill-opacity:1;" d="M 822.773438 582.085938 C 822.773438 594.863281 823.613281 603.242188 824.867188 603.242188 C 826.125 603.242188 826.960938 596.121094 826.960938 586.066406 C 826.960938 567.214844 828.429688 566.796875 834.917969 583.34375 C 840.988281 598.84375 845.59375 598.425781 852.085938 581.878906 L 857.320312 568.683594 L 857.945312 585.859375 C 858.367188 599.472656 859.203125 603.242188 861.507812 603.242188 C 864.019531 603.242188 864.648438 599.261719 864.648438 582.296875 C 864.648438 561.5625 864.648438 561.351562 859.621094 561.351562 C 855.226562 561.351562 853.761719 563.238281 849.574219 574.964844 C 847.0625 582.507812 843.921875 588.371094 842.875 587.953125 C 841.828125 587.535156 838.894531 581.667969 836.382812 574.964844 C 833.035156 565.539062 830.730469 562.1875 827.382812 561.769531 C 822.984375 561.140625 822.773438 561.769531 822.773438 582.085938 Z M 822.773438 582.085938 "/>
<path style=" stroke:none;fill-rule:nonzero;fill:rgb(0%,0%,0%);fill-opacity:1;" d="M 875.113281 582.296875 C 875.113281 599.472656 875.742188 603.242188 878.253906 603.242188 C 880.765625 603.242188 881.394531 599.472656 881.394531 582.296875 C 881.394531 565.121094 880.765625 561.351562 878.253906 561.351562 C 875.742188 561.351562 875.113281 565.121094 875.113281 582.296875 Z M 875.113281 582.296875 "/>
<path style=" stroke:none;fill-rule:nonzero;fill:rgb(0%,0%,0%);fill-opacity:1;" d="M 893.957031 582.296875 C 893.957031 594.863281 894.792969 603.242188 896.050781 603.242188 C 897.304688 603.242188 898.144531 596.332031 898.144531 586.488281 C 898.144531 577.269531 898.980469 569.730469 899.820312 569.730469 C 900.65625 569.730469 905.261719 577.269531 909.660156 586.488281 C 915.3125 598.214844 918.871094 603.242188 921.59375 603.242188 C 924.941406 603.242188 925.359375 601.148438 925.359375 582.296875 C 925.359375 565.332031 924.730469 561.351562 922.21875 561.351562 C 919.917969 561.351562 919.078125 564.914062 918.660156 577.269531 L 918.03125 593.398438 L 909.660156 577.480469 C 904.007812 566.796875 900.027344 561.351562 897.726562 561.351562 C 894.375 561.351562 893.957031 563.65625 893.957031 582.296875 Z M 893.957031 582.296875 "/>
<path style=" stroke:none;fill-rule:nonzero;fill:rgb(0%,0%,0%);fill-opacity:1;" d="M 935.828125 582.296875 C 935.828125 599.472656 936.457031 603.242188 938.96875 603.242188 C 941.480469 603.242188 942.109375 599.472656 942.109375 582.296875 C 942.109375 565.121094 941.480469 561.351562 938.96875 561.351562 C 936.457031 561.351562 935.828125 565.121094 935.828125 582.296875 Z M 935.828125 582.296875 "/>
<path style=" stroke:none;fill-rule:nonzero;fill:rgb(0%,0%,0%);fill-opacity:1;" d="M 954.671875 582.296875 C 954.671875 594.863281 955.507812 603.242188 956.765625 603.242188 C 958.019531 603.242188 958.859375 596.332031 958.859375 586.488281 C 958.859375 577.269531 959.695312 569.730469 960.53125 569.730469 C 961.371094 569.730469 965.976562 577.269531 970.371094 586.488281 C 976.023438 598.214844 979.582031 603.242188 982.304688 603.242188 C 985.65625 603.242188 986.074219 601.148438 986.074219 582.296875 C 986.074219 565.332031 985.445312 561.351562 982.933594 561.351562 C 980.628906 561.351562 979.792969 564.914062 979.375 577.269531 L 978.746094 593.398438 L 970.371094 577.480469 C 964.71875 566.796875 960.742188 561.351562 958.4375 561.351562 C 955.089844 561.351562 954.671875 563.65625 954.671875 582.296875 Z M 954.671875 582.296875 "/>
<path style=" stroke:none;fill-rule:nonzero;fill:rgb(0%,0%,0%);fill-opacity:1;" d="M 998.636719 582.296875 C 998.636719 599.472656 999.261719 603.242188 1001.777344 603.242188 C 1004.289062 603.242188 1004.917969 599.472656 1004.917969 582.296875 C 1004.917969 565.121094 1004.289062 561.351562 1001.777344 561.351562 C 999.261719 561.351562 998.636719 565.121094 998.636719 582.296875 Z M 998.636719 582.296875 "/>
<path style=" stroke:none;fill-rule:nonzero;fill:rgb(0%,0%,0%);fill-opacity:1;" d="M 1074.632812 582.296875 C 1069.1875 600.3125 1068.769531 603.453125 1071.703125 602.824219 C 1073.585938 602.40625 1075.261719 600.101562 1075.679688 597.378906 C 1076.308594 593.398438 1077.5625 592.769531 1085.519531 592.769531 C 1093.265625 592.769531 1094.730469 593.398438 1095.777344 598.007812 C 1096.613281 600.9375 1098.5 603.242188 1100.382812 603.242188 C 1102.476562 603.242188 1103.3125 601.988281 1102.476562 599.472656 C 1091.589844 563.863281 1090.542969 561.351562 1085.9375 561.351562 C 1081.75 561.351562 1080.285156 563.863281 1074.632812 582.296875 Z M 1088.449219 572.242188 C 1089.289062 574.964844 1090.753906 579.574219 1091.589844 582.714844 C 1092.847656 588.164062 1092.425781 588.582031 1086.566406 588.582031 C 1079.65625 588.582031 1079.238281 587.324219 1082.585938 575.386719 C 1085.101562 566.378906 1085.9375 565.960938 1088.449219 572.242188 Z M 1088.449219 572.242188 "/>
<path style=" stroke:none;fill-rule:nonzero;fill:rgb(0%,0%,0%);fill-opacity:1;" d="M 1111.6875 582.296875 C 1111.6875 594.863281 1112.527344 603.242188 1113.78125 603.242188 C 1115.039062 603.242188 1115.875 596.332031 1115.875 586.488281 C 1115.875 577.269531 1116.714844 569.730469 1117.550781 569.730469 C 1118.386719 569.730469 1122.992188 577.269531 1127.390625 586.488281 C 1133.042969 598.214844 1136.601562 603.242188 1139.324219 603.242188 C 1142.671875 603.242188 1143.09375 601.148438 1143.09375 582.296875 C 1143.09375 565.332031 1142.464844 561.351562 1139.953125 561.351562 C 1137.648438 561.351562 1136.8125 564.914062 1136.394531 577.269531 L 1135.765625 593.398438 L 1127.390625 577.480469 C 1121.738281 566.796875 1117.761719 561.351562 1115.457031 561.351562 C 1112.105469 561.351562 1111.6875 563.65625 1111.6875 582.296875 Z M 1111.6875 582.296875 "/>
<path style=" stroke:none;fill-rule:nonzero;fill:rgb(0%,0%,0%);fill-opacity:1;" d="M 1155.652344 582.507812 L 1155.652344 603.871094 L 1166.539062 602.824219 C 1175.125 601.988281 1178.472656 600.519531 1182.453125 595.703125 C 1186.847656 590.886719 1187.265625 588.371094 1186.429688 579.363281 C 1185.171875 565.960938 1179.9375 561.351562 1165.914062 561.351562 L 1155.652344 561.351562 Z M 1177.425781 570.148438 C 1184.964844 580.832031 1179.3125 596.960938 1168.003906 596.960938 L 1161.933594 596.960938 L 1161.933594 565.539062 L 1168.003906 565.539062 C 1172.191406 565.539062 1175.332031 567.214844 1177.425781 570.148438 Z M 1177.425781 570.148438 "/>
<path style=" stroke:none;fill-rule:nonzero;fill:rgb(0%,0%,0%);fill-opacity:1;" d="M 1210.085938 582.296875 L 1210.085938 603.242188 L 1217.203125 603.242188 C 1226.835938 603.242188 1236.882812 599.472656 1239.398438 594.863281 C 1240.652344 592.769531 1241.488281 586.277344 1241.488281 580.621094 C 1241.488281 566.585938 1235.835938 561.351562 1220.972656 561.351562 L 1210.085938 561.351562 Z M 1231.859375 568.890625 C 1235.628906 572.664062 1236.257812 586.695312 1233.117188 592.980469 C 1231.441406 595.703125 1228.71875 596.960938 1223.695312 596.960938 L 1216.367188 596.960938 L 1216.367188 565.539062 L 1222.4375 565.539062 C 1225.789062 565.539062 1230.183594 567.007812 1231.859375 568.890625 Z M 1231.859375 568.890625 "/>
<path style=" stroke:none;fill-rule:nonzero;fill:rgb(0%,0%,0%);fill-opacity:1;" d="M 1251.957031 582.296875 C 1251.957031 599.472656 1252.585938 603.242188 1255.097656 603.242188 C 1257.402344 603.242188 1258.238281 600.9375 1258.238281 594.863281 C 1258.238281 583.554688 1264.101562 583.554688 1271.636719 594.863281 C 1274.570312 599.472656 1278.546875 603.242188 1280.429688 603.242188 C 1283.78125 603.242188 1283.363281 602.195312 1276.453125 591.933594 C 1272.683594 586.695312 1272.683594 585.859375 1275.40625 584.183594 C 1280.640625 581.25 1281.894531 572.035156 1278.128906 566.378906 C 1275.40625 562.1875 1273.3125 561.351562 1263.472656 561.351562 L 1251.957031 561.351562 Z M 1272.894531 568.683594 C 1274.148438 570.359375 1274.777344 573.5 1273.941406 576.011719 C 1272.894531 579.15625 1270.800781 580.203125 1265.355469 580.203125 C 1258.65625 580.203125 1258.238281 579.785156 1258.238281 572.871094 C 1258.238281 566.167969 1258.867188 565.539062 1264.308594 565.539062 C 1267.660156 565.539062 1271.429688 567.007812 1272.894531 568.683594 Z M 1272.894531 568.683594 "/>
<path style=" stroke:none;fill-rule:nonzero;fill:rgb(0%,0%,0%);fill-opacity:1;" d="M 1291.734375 582.296875 C 1291.734375 599.472656 1292.363281 603.242188 1294.875 603.242188 C 1297.390625 603.242188 1298.015625 599.472656 1298.015625 582.296875 C 1298.015625 565.121094 1297.390625 561.351562 1294.875 561.351562 C 1292.363281 561.351562 1291.734375 565.121094 1291.734375 582.296875 Z M 1291.734375 582.296875 "/>
<path style=" stroke:none;fill-rule:nonzero;fill:rgb(0%,0%,0%);fill-opacity:1;" d="M 1310.578125 582.296875 L 1310.578125 603.242188 L 1322.09375 603.242188 C 1330.886719 603.242188 1333.609375 602.613281 1333.609375 600.101562 C 1333.609375 597.796875 1331.304688 596.960938 1325.234375 596.960938 L 1316.859375 596.960938 L 1316.859375 579.15625 C 1316.859375 564.703125 1316.230469 561.351562 1313.71875 561.351562 C 1311.207031 561.351562 1310.578125 565.121094 1310.578125 582.296875 Z M 1310.578125 582.296875 "/>
<path style=" stroke:none;fill-rule:nonzero;fill:rgb(0%,0%,0%);fill-opacity:1;" d="M 1341.980469 582.296875 L 1341.980469 603.242188 L 1354.542969 603.242188 C 1364.382812 603.242188 1367.105469 602.613281 1367.105469 600.101562 C 1367.105469 597.796875 1364.59375 596.960938 1357.683594 596.960938 L 1348.261719 596.960938 L 1348.261719 579.15625 C 1348.261719 564.703125 1347.632812 561.351562 1345.121094 561.351562 C 1342.609375 561.351562 1341.980469 565.121094 1341.980469 582.296875 Z M 1341.980469 582.296875 "/>
<path style=" stroke:none;fill-rule:nonzero;fill:rgb(0%,0%,0%);fill-opacity:1;" d="M 1375.480469 582.296875 C 1375.480469 599.472656 1376.105469 603.242188 1378.621094 603.242188 C 1381.132812 603.242188 1381.761719 599.472656 1381.761719 582.296875 C 1381.761719 565.121094 1381.132812 561.351562 1378.621094 561.351562 C 1376.105469 561.351562 1375.480469 565.121094 1375.480469 582.296875 Z M 1375.480469 582.296875 "/>
<path style=" stroke:none;fill-rule:nonzero;fill:rgb(0%,0%,0%);fill-opacity:1;" d="M 1392.226562 582.296875 C 1392.226562 599.261719 1392.855469 603.242188 1395.367188 603.242188 C 1397.671875 603.242188 1398.507812 599.472656 1398.925781 585.859375 L 1399.554688 568.683594 L 1408.558594 585.859375 C 1420.699219 609.738281 1423.632812 609.109375 1423.632812 582.296875 C 1423.632812 557.582031 1419.863281 553.8125 1419.027344 577.480469 L 1418.398438 593.816406 L 1409.394531 577.480469 C 1402.90625 566.167969 1399.136719 561.351562 1396.207031 561.351562 C 1392.644531 561.351562 1392.226562 563.027344 1392.226562 582.296875 Z M 1392.226562 582.296875 "/>
<path style=" stroke:none;fill-rule:nonzero;fill:rgb(0%,0%,0%);fill-opacity:1;" d="M 789.277344 599.890625 C 789.277344 602.613281 788.648438 606.386719 788.023438 608.269531 C 787.183594 610.363281 787.8125 611.621094 789.90625 611.621094 C 791.582031 611.621094 793.464844 608.898438 794.300781 605.128906 C 796.1875 595.703125 795.976562 594.863281 792.417969 594.863281 C 790.535156 594.863281 789.277344 596.75 789.277344 599.890625 Z M 789.277344 599.890625 "/>
</g>
</svg>
