<?xml version="1.0" encoding="UTF-8"?> <svg xmlns="http://www.w3.org/2000/svg" width="87" height="90" viewBox="0 0 87 90" fill="none"><g clip-path="url(#clip0_1_1023)"><path d="M65.8562 -6.78468e-07H19.9987C15.4309 -6.78468e-07 11.722 3.7028 11.722 8.28053V22.1309H11.9953C12.3077 22.1309 12.6122 22.0762 12.9089 21.9747C13.354 21.8184 13.9942 21.5528 14.3222 21.256C15.267 20.4045 15.6261 19.4905 15.6261 17.9906V17.9125V8.27272C15.6261 5.85887 17.586 3.8981 19.9987 3.8981H65.8562C68.2689 3.8981 70.2288 5.85887 70.2288 8.27272V17.9125C70.2288 20.3264 68.2689 22.2871 65.8562 22.2871H61.8896L60.937 27.3492L56.0413 22.2871H29.7511L25.2849 27.3258L25.2536 27.2242C25.2224 27.1226 25.1756 27.0367 25.1365 26.9352L23.8716 23.5917C23.5749 22.8027 22.8175 22.2871 21.982 22.2871H19.4522L20.2954 24.7947L23.5358 35.1844L31.508 26.193H54.386L63.3732 35.4891L65.1222 26.193H65.8484C70.4162 26.193 74.1251 22.4902 74.1251 17.9125V8.27272C74.1251 3.7028 70.424 -0.0078125 65.8484 -0.0078125L65.8562 -6.78468e-07Z" fill="#F7921E"></path><path d="M84.6738 90.1172L84.4083 76.6652C84.4083 72.0016 81.6442 67.8066 77.3185 65.924C79.5516 63.057 80.7307 59.612 80.7307 55.9639C80.7307 51.3315 78.7474 46.91 75.2883 43.8321C71.8371 40.7543 67.2069 39.3013 62.5766 39.8403C55.3775 40.6762 49.576 46.2538 48.4828 53.4094C47.7879 57.9481 48.9435 62.4165 51.7779 65.924C48.4282 67.3145 45.9998 70.1345 45.0472 73.5092H46.6713C47.499 73.5092 48.2798 73.7514 48.9357 74.1576C49.6385 72.1031 51.1845 70.3923 53.2693 69.5252C54.4014 69.0565 55.2213 68.1113 55.5258 66.9395C55.8303 65.7599 55.5727 64.5257 54.8075 63.557C52.6836 60.8541 51.8013 57.456 52.3323 53.9875C53.1521 48.6598 57.6418 44.3321 63.0217 43.7071C66.5978 43.2853 70.0334 44.3633 72.6882 46.7381C75.3118 49.0739 76.8188 52.433 76.8188 55.9561C76.8188 58.7605 75.9052 61.4009 74.164 63.5882C73.43 64.51 73.1801 65.7052 73.4768 66.8536C73.7814 68.0488 74.6481 69.0487 75.7881 69.533C78.6459 70.7439 80.4964 73.5405 80.4964 76.6887L80.6838 86.1956L84.666 90.1016L84.6738 90.1172Z" fill="url(#paint0_linear_1_1023)"></path><path d="M80.6917 86.2113H5.04596L4.85857 76.6652C4.85857 73.5327 6.72472 70.736 9.62156 69.5252C10.7537 69.0565 11.5736 68.1113 11.8781 66.9395C12.1826 65.7599 11.925 64.5335 11.1598 63.557C9.03594 60.8541 8.15362 57.456 8.68458 53.9875C9.50444 48.6598 13.9941 44.3321 19.374 43.7071C22.9501 43.2853 26.3857 44.3633 29.0405 46.7381C31.6641 49.0739 33.1711 52.4329 33.1711 55.9561C33.1711 58.7605 32.2575 61.4009 30.5163 63.5882C29.7823 64.51 29.5324 65.7052 29.8291 66.8536C30.1337 68.0488 31.0004 69.0487 32.1404 69.533C34.9982 70.7439 36.8487 73.5405 36.8487 76.6496L36.9736 77.9854H37.0049C37.1064 78.9697 37.9262 79.7431 38.9413 79.7431H46.6948C47.7724 79.7431 48.6469 78.8682 48.6469 77.7901C48.6469 76.7121 47.7724 75.8372 46.6948 75.8372H40.7294C40.4249 71.5016 37.7466 67.6816 33.6708 65.9083C35.9039 63.0414 37.083 59.5964 37.083 55.9483C37.083 51.3159 35.0997 46.8944 31.6406 43.8165C28.1894 40.7387 23.5514 39.2857 18.9289 39.8247C11.7298 40.6605 5.92829 46.2382 4.83514 53.3938C4.14021 57.9325 5.29582 62.4008 8.1302 65.9083C3.77323 67.7207 0.96228 71.9391 0.96228 76.6887L1.22776 90.1016H84.6817L80.6995 86.1956L80.6917 86.2113Z" fill="#F7921E"></path></g><defs><linearGradient id="paint0_linear_1_1023" x1="51.1923" y1="59.8932" x2="89.9927" y2="67.94" gradientUnits="userSpaceOnUse"><stop stop-color="#905029"></stop><stop offset="0.29" stop-color="#B75C1D"></stop><stop offset="0.82" stop-color="#F7921E"></stop></linearGradient><clipPath id="clip0_1_1023"><rect width="86" height="90" fill="white" transform="translate(0.333374)"></rect></clipPath></defs></svg> 